<?xml version="1.0" standalone="no"?>
<!DOCTYPE svg PUBLIC "-//W3C//DTD SVG 20010904//EN"
 "http://www.w3.org/TR/2001/REC-SVG-20010904/DTD/svg10.dtd">
<svg version="1.0" xmlns="http://www.w3.org/2000/svg"
 width="2048.000000pt" height="2048.000000pt" viewBox="0 0 2048.000000 2048.000000"
 preserveAspectRatio="xMidYMid meet">
<metadata>
Created by potrace 1.14, written by Peter Selinger 2001-2017
</metadata>
<g transform="translate(0.000000,2048.000000) scale(0.100000,-0.100000)"
fill="#000000" stroke="none">
<path d="M8509 16035 c-1624 -2352 -2492 -3610 -3071 -4450 -330 -478 -609
-877 -619 -887 -18 -16 -19 -41 -19 -672 l0 -656 2235 0 2235 0 0 -3025 0
-3025 660 0 660 0 0 3025 0 3025 2545 0 2545 0 0 660 0 660 -2545 0 -2545 0 0
3230 0 3230 -654 2 -654 3 -773 -1120z m761 -3285 l0 -2060 -1420 0 c-781 0
-1420 2 -1420 5 0 3 287 420 637 928 875 1266 1255 1817 1763 2554 239 348
436 632 438 633 1 0 2 -927 2 -2060z"/>
<path d="M8070 12275 c-116 -32 -198 -81 -285 -168 -135 -134 -189 -265 -189
-452 0 -184 54 -316 184 -446 139 -140 283 -195 484 -187 85 4 127 11 178 30
192 72 334 218 399 413 20 58 24 90 24 190 0 105 -4 130 -28 200 -64 188 -205
332 -395 403 -86 32 -284 41 -372 17z"/>
</g>
</svg>
