<?xml version="1.0" standalone="no"?>
<!DOCTYPE svg PUBLIC "-//W3C//DTD SVG 20010904//EN"
 "http://www.w3.org/TR/2001/REC-SVG-20010904/DTD/svg10.dtd">
<svg version="1.0" xmlns="http://www.w3.org/2000/svg"
 width="2048.000000pt" height="2048.000000pt" viewBox="0 0 2048.000000 2048.000000"
 preserveAspectRatio="xMidYMid meet">
<metadata>
Created by potrace 1.14, written by Peter Selinger 2001-2017
</metadata>
<g transform="translate(0.000000,2048.000000) scale(0.100000,-0.100000)"
fill="#000000" stroke="none">
<path d="M7930 16639 c-1006 -60 -2039 -350 -2846 -799 -1073 -597 -1827
-1433 -2089 -2318 -164 -556 -146 -1089 57 -1632 275 -738 815 -1401 1653
-2030 724 -543 1637 -1002 2650 -1333 908 -297 1911 -493 2785 -546 96 -6 210
-13 253 -16 105 -7 807 -7 937 0 840 45 1627 155 2430 340 84 19 155 34 156
32 2 -2 -10 -85 -26 -185 -187 -1147 -602 -2423 -1069 -3280 -235 -432 -439
-730 -1059 -1546 -145 -191 -269 -361 -275 -377 -22 -58 32 -127 90 -115 63
14 510 375 708 572 259 258 441 485 688 859 170 259 261 414 408 700 465 905
834 2097 1005 3245 20 135 37 250 39 256 2 5 67 30 146 53 293 89 750 253 989
356 293 126 732 373 1070 603 341 232 507 365 763 614 46 45 29 112 -29 110
-81 -2 -489 -186 -859 -387 -70 -38 -436 -211 -560 -266 -131 -56 -633 -258
-865 -346 -192 -73 -582 -204 -588 -198 -3 3 0 74 6 157 64 839 28 1520 -119
2253 -241 1197 -746 2272 -1478 3150 -684 818 -1552 1419 -2535 1754 -742 253
-1621 369 -2436 320z m850 -489 c446 -38 824 -106 1204 -216 1372 -396 2500
-1340 3250 -2721 377 -692 655 -1578 760 -2423 68 -540 68 -1194 3 -1824 l-12
-110 -195 -48 c-787 -193 -1652 -319 -2475 -359 -265 -13 -893 -7 -1140 11
-868 62 -1748 232 -2588 499 -1698 540 -3086 1453 -3762 2476 -241 364 -396
751 -445 1110 -15 114 -13 383 4 506 79 558 363 1076 861 1572 893 889 2258
1449 3745 1536 179 11 622 6 790 -9z"/>
<path d="M8810 11236 c-25 -7 -57 -18 -72 -24 -38 -16 -104 -77 -117 -111 -11
-25 -19 -29 -69 -34 -304 -32 -656 -336 -738 -638 -24 -87 -24 -280 0 -369 26
-98 63 -191 102 -256 197 -326 564 -508 941 -466 195 22 417 93 544 174 178
114 328 316 380 513 33 127 30 305 -9 455 -79 306 -303 584 -572 707 -126 58
-288 78 -390 49z"/>
</g>
</svg>
